<svg xmlns="http://www.w3.org/2000/svg" xmlns:xlink="http://www.w3.org/1999/xlink" width="1024" zoomAndPan="magnify" viewBox="0 0 768 767.999994" height="1024" preserveAspectRatio="xMidYMid meet" version="1.0"><defs><clipPath id="be98a1a110"><path d="M 426 3.800781 L 622 3.800781 L 622 765.800781 L 426 765.800781 Z M 426 3.800781 " clip-rule="nonzero"/></clipPath></defs><rect x="-76.8" width="921.6" fill="#ffffff" y="-76.799999" height="921.599993" fill-opacity="1"/><rect x="-76.8" width="921.6" fill="#ffffff" y="-76.799999" height="921.599993" fill-opacity="1"/><rect x="-76.8" width="921.6" fill="#000000" y="-76.799999" height="921.599993" fill-opacity="1"/><path fill="#ffffff" d="M 294.355469 540.730469 C 296.183594 539.816406 297.097656 538.902344 297.097656 538.902344 C 361.101562 509.636719 371.160156 452.019531 364.757812 401.722656 C 358.359375 350.507812 335.5 307.523438 335.5 307.523438 L 199.261719 307.523438 C 199.261719 307.523438 176.402344 351.421875 170.003906 401.722656 C 163.601562 452.019531 173.660156 509.636719 237.664062 538.902344 C 237.664062 538.902344 238.578125 539.816406 240.40625 540.730469 C 244.066406 543.472656 251.378906 548.960938 253.207031 556.277344 L 253.207031 728.210938 L 244.066406 740.101562 C 209.320312 741.929688 183.71875 746.503906 183.71875 751.988281 C 183.71875 759.304688 220.292969 764.792969 266.007812 764.792969 C 311.726562 764.792969 348.300781 759.304688 348.300781 751.988281 C 348.300781 746.503906 322.699219 741.015625 287.953125 740.101562 L 278.808594 728.210938 L 278.808594 556.277344 C 283.382812 548.960938 290.695312 543.472656 294.355469 540.730469 Z M 294.355469 540.730469 " fill-opacity="1" fill-rule="nonzero"/><g clip-path="url(#be98a1a110)"><path fill="#ffffff" d="M 565.914062 214.242188 L 565.914062 48.707031 L 568.65625 48.707031 L 568.65625 25.84375 C 568.65625 21.273438 565 19.445312 565 19.445312 C 565 4.8125 556.769531 3.894531 556.769531 3.894531 L 492.765625 3.894531 C 492.765625 3.894531 484.539062 4.8125 484.539062 19.445312 C 484.539062 19.445312 480.878906 21.273438 480.878906 25.84375 L 480.878906 48.707031 L 483.625 48.707031 L 483.625 214.242188 C 483.625 214.242188 426.019531 230.703125 426.019531 320.328125 L 426.019531 720.894531 C 426.019531 720.894531 430.589844 765.707031 523.855469 765.707031 C 617.117188 765.707031 621.6875 720.894531 621.6875 720.894531 L 621.6875 319.414062 C 622.601562 230.703125 565.914062 214.242188 565.914062 214.242188 Z M 565.914062 214.242188 " fill-opacity="1" fill-rule="nonzero"/></g></svg>